<?xml version="1.0" encoding="utf-8"?>
<!-- Generator: Adobe Illustrator 16.0.3, SVG Export Plug-In . SVG Version: 6.00 Build 0)  -->
<!DOCTYPE svg PUBLIC "-//W3C//DTD SVG 1.1//EN" "http://www.w3.org/Graphics/SVG/1.1/DTD/svg11.dtd">
<svg version="1.1" id="Capa_1" xmlns="http://www.w3.org/2000/svg" xmlns:xlink="http://www.w3.org/1999/xlink" x="0px" y="0px"
	 width="293px" height="120px" viewBox="0 0 293 120" enable-background="new 0 0 293 120" xml:space="preserve">
<g>
	<path fill="#DE3F15" d="M57.344,28.999c0.492-6.105,3.928-12.791,2.337-18.979C57.385,1.083,47.772,6.934,45,12
		c-1.378-2.143-2.71-4.754-5.105-5.934C34.287,3.305,29.547,9.464,28,14c-0.805-2.51-1.045-6.233-3.434-7.816
		C18.229,1.985,12.575,10.841,12,16c3.476-1.58,6.294-3.973,10-5c-0.174,4.053-0.916,8.002-1.586,12c-0.39,2.327-0.84,4.658-1.127,7
		c-0.243,1.979,0.227,14.955,4.4,8.663c1.447-2.182,1.2-5.189,1.635-7.663C26.665,23.354,29.213,12.368,38,11
		c-0.003,4.099-0.23,7.966-1,12c-0.444,2.329-0.803,4.652-1.13,7c-0.343,2.463-1.208,5.377-0.537,7.847
		c0.68,2.503,3.13,2.95,4.659,0.816C46.258,29.915,40.306,14.878,54,11c-0.062,7.461-4.948,17.976-2.105,24.945
		C55.69,45.253,66.083,38.81,68,32c-2.348,0.63-5.382,2.939-7.771,2.813C57.442,34.665,57.177,31.074,57.344,28.999z"/>
	<path fill="#DE3F15" d="M116,21h-5c2.119-3.354,4.799-6.799,4.612-10.995c-0.175-3.918-3.309-7.23-6.997-4.397
		C103.094,9.849,104.659,18.896,98,21v4h3v6l-7,1c0.145-3.366,0.662-6.664,1.13-10c0.329-2.34,0.739-4.667,1.116-7
		c0.347-2.147,0.229-13.899-4.237-7.663c-3.74,5.221-2.405,13.015-6.646,18.643c-1.364,1.81-3.614,4.458-6.211,3.674
		c-2.989-0.902-2.49-4.359-1.989-6.654c1.03-4.719,4.249-13.861-1.31-16.957C69.331,2.412,63.418,10.461,63,16l9-6
		c1.49,6.853-3.166,13.474-1.413,19.984C73.396,40.417,84.861,34.67,88,28c0.83,8.768-10.333,8.44-13.821,15.043
		c-3.815,7.224,3.033,12.466,9.817,9.808c7.169-2.808,6.059-9.269,9.988-14.417C95.783,36.078,99.359,35.845,102,35
		c3.344,6.237,10.644,7.935,13,0c-7.511,0.708-8.937-3.069-9-10C110.238,24.988,114.406,25.533,116,21z M79.604,48.863
		C73.964,45.209,84.42,39.767,87,39C86.751,41.829,84.707,52.169,79.604,48.863z M112,9c-0.424,4.136-1.423,7.655-5,10
		C107.562,14.677,107.994,11.202,112,9z"/>
	<path fill="#DE3F15" d="M159.123,28.895c1.643-4.093-1.78-8.239-6.123-7.519c-4.04,0.67-6.977,4.806-7.64,8.624
		c-1.99,11.449,14.285,14.4,16.64,3c-3.439,0.854-6.465,2.496-10,3C154.243,33.696,157.878,31.998,159.123,28.895z M155,25
		c-0.568,3.583-1.508,4.943-5,6C150.518,27.474,151.536,25.979,155,25z"/>
	<path fill="#DE3F15" d="M134.01,25.165c-1.075,1.499-1.492,3.105-2.01,4.835c-0.673-3.103-0.242-5.84,0-9
		c-7.336,2.226-8.664,16.325-2,20c2.093-4.699,3.698-8.971,7-13c-0.194,4.519-1.029,8.522,0,13c6.352-1.386,4.699-6.688,5.169-12
		c0.169-1.906,1.069-4.681-0.236-6.378C139.694,19.71,135.44,23.171,134.01,25.165z"/>
	<path fill="#DE3F15" d="M120.258,21.891c-3.204,1.101-4.151,11.166-4.109,14.09c0.024,1.674,0.52,4.498,2.851,4.098
		c3.734-0.64,4.41-11.964,4.413-15.019C123.414,23.232,122.501,21.12,120.258,21.891z"/>
	<path fill="#DE3F15" d="M121.318,13.082c-3.402,2.025,0.223,6.063,3.064,3.875C127.005,14.938,123.981,11.497,121.318,13.082z"/>
	<path fill="#DE3F15" d="M188.094,22.895C180.168,28.218,181.409,43.775,193,39c1.723,1.952,3.673,1.656,4.566-1.149
		c0.946-2.968,1.976-10.68,0.791-13.573C196.719,20.281,190.989,20.95,188.094,22.895z M188,36c0.125-5.186,1.159-8.611,6-11
		C193.382,29.78,193.068,34.399,188,36z"/>
	<path fill="#DE3F15" d="M212.044,23.278c-1.481,0.99-2.781,2.5-4.044,3.722l1-6c-8.941,1.459-7.711,13.575-5,20
		c4.628-2.543,5.633-8.888,9-13c0.531,3.327,4.35,8.193,6.843,2.847C222.389,25.392,217.12,19.886,212.044,23.278z"/>
	<path fill="#DE3F15" d="M227,35l2-14c-8.388,2.523-9.393,22.474,2,18c-3.551,4.105-8.678,7.493-10.177,12.999
		c-1.427,5.247,3.479,8.722,7.963,5.396c2.931-2.172,3.981-6.092,5.036-9.396c2.669-8.37,4.104-18.223,4.178-27
		C231.811,22.877,231.796,30.888,227,35z M225,55c0.252-3.504,1.313-5.935,3-9h2C229.324,49.788,228.285,52.846,225,55z"/>
	<path fill="#DE3F15" d="M174.98,21.891c-3.321,0.87-4.86,4.244-5.98,7.109c-0.298-2.695-0.098-5.283,0-8
		c-8.037,2.418-6.575,13.385-5,20c5.777-1.823,5.906-8.945,10-13c0.467,4.056,5.508,8.487,6.553,2.031
		C181.025,27.114,178.682,20.921,174.98,21.891z"/>
</g>
<path fill="#3E5058" d="M37,49.515c-4.709,0.971-9.228,2.861-13,5.865C17.842,60.284,12.706,67.09,11.329,75
	C7.72,95.727,26.821,116.527,48,112.532c32.578-6.146,34.626-52.992,3-62.083C46.363,49.117,41.79,48.526,37,49.515 M105,49.529
	c-28.656,6.578-31.668,47.563-5.83,59.938c6.503,3.115,14.932,3.116,21.815,1.513c19.167-4.463,28.228-27.99,19.877-44.98
	C134.561,53.181,118.818,46.357,105,49.529 M179,50.518c-31.566,6.696-33.192,52.992-2,61.846c5.214,1.479,11.777,0.83,16.984-0.383
	c3.658-0.851,6.976-2.655,10.029-4.82C230.951,88.07,211.229,43.681,179,50.518 M251,50.468c-27.816,5.248-34.492,44.708-10,58.804
	c6.945,3.998,15.222,4.576,23,3.109c4.03-0.76,7.624-2.257,10.996-4.602C302.028,88.984,283.507,44.335,251,50.468z"/>
<path fill="#F7F6F5" d="M184,56c0,10.938,0.374,22.337-2.489,33c-1.723,6.416-5.53,11.782-7.511,18h5c2.37-8.344,10.285-7.792,13,0
	h5c-3.45-9.117-7.813-17.172-9.536-27c-1.378-7.85,0.188-16.37-1.464-24H184 M232,75h16v17c-4.205,0-12.936-1.964-14,3
	c11.029-1.394,22.882-1.801,34-0.906c4.078,0.327,7.885,1.719,12,1.906c-4.656-8.021-13.345-7.443-20.91-10.598
	c-3.63-1.514-4.996-4.711-9.09-5.402v-5h16C265.016,57.021,233.852,57.045,232,75 M102,63c1.611,5.74,6.641,9.232,10,14
	c-6.354,2.517-9.302,4.299-16,2l-1,1c1.784,4.105,4.031,7.553,5,12c3.194-1.953,3.669-4.36,4-8c3.894-0.398,7.265-1.936,11-3l1,16
	c5.924-2.15,4.346-9.002,8-13c-2.241-7.092,4.152-8.499,7-14c-5.366,0.789-10.8,3.799-14-2h-6v-3L102,63 M35,87
	c-4.288,0.199-9.675,1.158-11.914,5.424c-2.608,4.97,5.324,4.735,7.894,3.397c8.992-4.681,3.674-17.12,9.758-23.218
	C44.242,69.092,54.383,71,59,71c-1.354,4.271-1.335,12.231-4.589,15.397c-3.165,3.08-10.775,2.115-10.775,8.455
	c0,6.889,10.922-0.284,12.34-2.896c1.278-2.354,1.341-5.378,1.909-7.957c1.461-6.64,3.059-13.174,3.115-20
	c-4.974,0-16.223-2.115-20.272,1.027C36.263,68.494,35.432,81.711,35,87z"/>
<path fill="#3E5058" d="M240,73h5c0.117-2.73,0.499-5.314,1-8C242.402,66.845,240.934,69.086,240,73 M252,65
	c0.501,2.686,0.883,5.27,1,8h5C257.182,68.958,255.709,66.829,252,65 M41,68v2h18v-2H41 M250,82v10h6
	C255.422,87.652,253.803,84.31,250,82 M184,89l-1,6h4c-0.094-2.205-0.355-3.895-1-6H184 M259,91c3.598,1.514,8.095,1.506,12,2
	C268.283,89.891,262.896,91,259,91z"/>
</svg>
